<svg width="312" height="40" viewBox="0 0 312 40" fill="none" xmlns="http://www.w3.org/2000/svg">
<path d="M18.04 30H15.4C15 30 14.72 29.8133 14.56 29.44L6.8 9.72V26.84H9.32C9.72 26.84 9.92 27.04 9.92 27.44V29.4C9.92 29.8 9.72 30 9.32 30H1.2C0.8 30 0.6 29.8 0.6 29.4V27.44C0.6 27.04 0.8 26.84 1.2 26.84H3.32V6.08H1.2C0.8 6.08 0.6 5.88 0.6 5.48V3.44C0.6 3.04 0.8 2.84 1.2 2.84H8.2C8.62667 2.84 8.89333 3.02667 9 3.4L17.24 24.88L25.68 3.4C25.7867 3.02667 26.0533 2.84 26.48 2.84H33.16C33.56 2.84 33.76 3.04 33.76 3.44V5.48C33.76 5.88 33.56 6.08 33.16 6.08H31.04V26.84H33.16C33.56 26.84 33.76 27.04 33.76 27.44V29.4C33.76 29.8 33.56 30 33.16 30H24.36C23.96 30 23.76 29.8 23.76 29.4V27.44C23.76 27.04 23.96 26.84 24.36 26.84H26.76V9.76L18.88 29.44C18.72 29.8133 18.44 30 18.04 30ZM41.9672 10.76L46.6472 25.32L50.8072 13.48H48.7672C48.3672 13.48 48.1672 13.28 48.1672 12.88V10.8C48.1672 10.4 48.3672 10.2 48.7672 10.2H54.6072C54.9272 10.2 55.1405 10.2933 55.2472 10.48C55.3539 10.6667 55.4072 10.84 55.4072 11C55.4072 11.1333 55.3805 11.2667 55.3272 11.4L46.7672 33.76C46.3672 34.7733 46.0205 35.5467 45.7272 36.08C45.4605 36.64 45.0739 37.2267 44.5672 37.84C43.5805 39.0133 42.1272 39.6 40.2072 39.6C38.2872 39.6 36.7139 39.3067 35.4872 38.72C35.2739 38.6133 35.1672 38.48 35.1672 38.32C35.1672 38.16 35.1805 38.04 35.2072 37.96L35.8872 36C35.9939 35.6533 36.2472 35.5333 36.6472 35.64C37.9272 36.0667 38.9672 36.28 39.7672 36.28C40.5939 36.28 41.2205 36.0667 41.6472 35.64C42.1005 35.24 42.5672 34.3867 43.0472 33.08L44.0472 30.44L37.9672 13.48H35.9672C35.5672 13.48 35.3672 13.28 35.3672 12.88V10.8C35.3672 10.4 35.5672 10.2 35.9672 10.2H41.2072C41.6072 10.2 41.8605 10.3867 41.9672 10.76ZM65.7172 29.4V27.44C65.7172 27.04 65.9172 26.84 66.3172 26.84H68.3972V6.04H66.3172C65.9172 6.04 65.7172 5.84 65.7172 5.44V3.44C65.7172 3.04 65.9172 2.84 66.3172 2.84C69.7305 2.68 72.5705 2.6 74.8372 2.6C81.7705 2.6 85.2372 5.08 85.2372 10.04C85.2372 11.7733 84.7972 13.3067 83.9172 14.64C83.0372 15.9467 81.8639 16.9467 80.3972 17.64L85.0772 26.84H87.5572C87.9572 26.84 88.1572 27.04 88.1572 27.44V29.4C88.1572 29.8 87.9572 30 87.5572 30H82.2772C81.8772 30 81.5839 29.8267 81.3972 29.48L75.9572 18.72H75.1572C74.3039 18.72 73.5439 18.68 72.8772 18.6V26.84H75.3972C75.7972 26.84 75.9972 27.04 75.9972 27.44V29.4C75.9972 29.8 75.7972 30 75.3972 30H66.3172C65.9172 30 65.7172 29.8 65.7172 29.4ZM72.8772 5.92V15.56C73.0905 15.5867 73.3972 15.6 73.7972 15.6C75.9572 15.6 77.6372 15.1733 78.8372 14.32C80.0372 13.4667 80.6372 12.1867 80.6372 10.48C80.6372 7.44 78.5305 5.92 74.3172 5.92H72.8772ZM99.3656 30.48C96.1923 30.48 93.859 29.56 92.3656 27.72C90.899 25.8533 90.1656 23.4 90.1656 20.36C90.1656 17.2933 90.9523 14.76 92.5256 12.76C94.099 10.76 96.3656 9.76 99.3256 9.76C100.792 9.76 102.046 10.04 103.086 10.6C104.152 11.1333 104.966 11.8667 105.526 12.8C106.592 14.6133 107.126 16.7067 107.126 19.08C107.126 20.2 107.072 20.8133 106.966 20.92C106.859 21.0267 106.659 21.08 106.366 21.08H94.6056C94.739 23 95.2056 24.4933 96.0056 25.56C96.8323 26.6 98.2456 27.12 100.246 27.12C101.712 27.12 103.219 26.7733 104.766 26.08C105.139 25.8933 105.406 26 105.566 26.4L106.326 28.24C106.459 28.56 106.339 28.8267 105.966 29.04C104.206 30 102.006 30.48 99.3656 30.48ZM94.6056 18.12H102.926C102.979 14.7867 101.672 13.12 99.0056 13.12C97.4323 13.12 96.3123 13.6267 95.6456 14.64C95.0056 15.6267 94.659 16.7867 94.6056 18.12ZM114.296 19.84C114.296 24.6933 116.176 27.12 119.936 27.12C121.136 27.12 122.536 26.76 124.136 26.04C124.536 25.88 124.816 26 124.976 26.4L125.696 28.16C125.829 28.5333 125.723 28.8133 125.376 29C123.749 29.9867 121.696 30.48 119.216 30.48C115.989 30.48 113.603 29.5733 112.056 27.76C110.509 25.92 109.736 23.44 109.736 20.32C109.736 17.1733 110.523 14.6267 112.096 12.68C113.696 10.7333 116.069 9.76 119.216 9.76C121.616 9.76 123.389 10.4133 124.536 11.72C125.683 13.0267 126.256 14.6933 126.256 16.72C126.256 17.0667 126.029 17.24 125.576 17.24H123.176C122.749 17.24 122.523 17.04 122.496 16.64C122.363 14.2933 121.176 13.12 118.936 13.12C117.336 13.12 116.163 13.68 115.416 14.8C114.669 15.8933 114.296 17.5733 114.296 19.84ZM137.647 30.48C134.474 30.48 132.14 29.56 130.647 27.72C129.18 25.8533 128.447 23.4 128.447 20.36C128.447 17.2933 129.234 14.76 130.807 12.76C132.38 10.76 134.647 9.76 137.607 9.76C139.074 9.76 140.327 10.04 141.367 10.6C142.434 11.1333 143.247 11.8667 143.807 12.8C144.874 14.6133 145.407 16.7067 145.407 19.08C145.407 20.2 145.354 20.8133 145.247 20.92C145.14 21.0267 144.94 21.08 144.647 21.08H132.887C133.02 23 133.487 24.4933 134.287 25.56C135.114 26.6 136.527 27.12 138.527 27.12C139.994 27.12 141.5 26.7733 143.047 26.08C143.42 25.8933 143.687 26 143.847 26.4L144.607 28.24C144.74 28.56 144.62 28.8267 144.247 29.04C142.487 30 140.287 30.48 137.647 30.48ZM132.887 18.12H141.207C141.26 14.7867 139.954 13.12 137.287 13.12C135.714 13.12 134.594 13.6267 133.927 14.64C133.287 15.6267 132.94 16.7867 132.887 18.12ZM147.617 12.92V10.8C147.617 10.4 147.817 10.2 148.217 10.2H153.657C154.004 10.2 154.217 10.4 154.297 10.8L154.657 13.12C156.151 10.88 158.284 9.76 161.057 9.76C165.191 9.76 167.257 12.0267 167.257 16.56V26.84H169.577C169.977 26.84 170.177 27.04 170.177 27.44V29.4C170.177 29.8 169.977 30 169.577 30H160.857C160.457 30 160.257 29.8 160.257 29.4V27.44C160.257 27.04 160.457 26.84 160.857 26.84H162.777V18.56C162.777 16.88 162.564 15.6533 162.137 14.88C161.711 14.1067 160.831 13.72 159.497 13.72C158.164 13.72 157.057 14.12 156.177 14.92C155.297 15.72 154.857 16.6267 154.857 17.64V26.84H157.337C157.737 26.84 157.937 27.04 157.937 27.44V29.4C157.937 29.8 157.737 30 157.337 30H148.257C147.857 30 147.657 29.8 147.657 29.4V27.44C147.657 27.04 147.857 26.84 148.257 26.84H150.377V13.48H148.217C147.817 13.48 147.617 13.2933 147.617 12.92ZM178.718 13.48V23.56C178.718 24.8133 178.878 25.72 179.198 26.28C179.518 26.84 180.118 27.12 180.998 27.12C181.878 27.12 182.731 26.9333 183.558 26.56C183.851 26.4533 184.064 26.56 184.198 26.88L184.918 28.72C184.944 28.8 184.958 28.92 184.958 29.08C184.958 29.2133 184.824 29.36 184.558 29.52C183.278 30.16 181.758 30.48 179.998 30.48C177.624 30.48 176.064 29.8667 175.318 28.64C174.784 27.84 174.478 27.0667 174.398 26.32C174.291 25.3067 174.238 24.24 174.238 23.12V13.48H171.958C171.558 13.48 171.358 13.28 171.358 12.88V10.8C171.358 10.4 171.558 10.2 171.958 10.2H174.238V4.8C174.238 4.4 174.438 4.2 174.838 4.2H178.118C178.518 4.2 178.718 4.4 178.718 4.8V10.2H182.758C183.158 10.2 183.358 10.4 183.358 10.8V12.88C183.358 13.28 183.158 13.48 182.758 13.48H178.718ZM202.171 29.4L196.411 6.08H194.331C193.931 6.08 193.731 5.88 193.731 5.48V3.44C193.731 3.04 193.931 2.84 194.331 2.84H204.331C204.731 2.84 204.931 3.04 204.931 3.44V5.48C204.931 5.88 204.731 6.08 204.331 6.08H201.491L205.771 24.68L211.611 3.4C211.718 3.02667 211.971 2.84 212.371 2.84H215.651C216.051 2.84 216.305 3.02667 216.411 3.4L222.211 24.8L226.811 6.08H224.171C223.771 6.08 223.571 5.88 223.571 5.48V3.44C223.571 3.04 223.771 2.84 224.171 2.84H232.611C233.011 2.84 233.211 3.04 233.211 3.44V5.48C233.211 5.88 233.011 6.08 232.611 6.08H230.491L224.331 29.4C224.225 29.8 223.971 30 223.571 30H219.811C219.411 30 219.158 29.8133 219.051 29.44L213.451 9.52L208.091 29.44C207.985 29.8133 207.731 30 207.331 30H202.931C202.531 30 202.278 29.8 202.171 29.4ZM234.814 20.4C234.814 18.4 235.121 16.6667 235.734 15.2C236.347 13.7333 237.147 12.6267 238.134 11.88C240.027 10.4667 242.081 9.76 244.294 9.76C245.921 9.76 247.294 10.0133 248.414 10.52C249.534 11.0267 250.401 11.6133 251.014 12.28C251.654 12.9467 252.187 13.9067 252.614 15.16C253.067 16.4133 253.294 17.88 253.294 19.56C253.294 23.1333 252.387 25.8533 250.574 27.72C248.787 29.56 246.494 30.48 243.694 30.48C240.894 30.48 238.707 29.64 237.134 27.96C235.587 26.2533 234.814 23.7333 234.814 20.4ZM244.014 27.2C245.614 27.2 246.774 26.6133 247.494 25.44C248.241 24.24 248.614 22.4667 248.614 20.12C248.614 17.7733 248.241 16.0133 247.494 14.84C246.774 13.64 245.587 13.04 243.934 13.04C240.867 13.04 239.334 15.2 239.334 19.52C239.334 24.64 240.894 27.2 244.014 27.2ZM262.703 13.64C263.156 12.5733 263.89 11.6667 264.903 10.92C265.916 10.1467 267.023 9.76 268.223 9.76C269.423 9.76 270.343 9.86667 270.983 10.08C271.303 10.1867 271.463 10.4267 271.463 10.8V16.2C271.463 16.6 271.263 16.8 270.863 16.8H268.263C267.863 16.8 267.676 16.6 267.703 16.2L267.863 13.88C267.73 13.8533 267.503 13.84 267.183 13.84C265.956 13.84 264.943 14.3467 264.143 15.36C263.343 16.3467 262.943 17.68 262.943 19.36V26.84H267.343C267.743 26.84 267.943 27.04 267.943 27.44V29.4C267.943 29.8 267.743 30 267.343 30H256.343C255.943 30 255.743 29.8 255.743 29.4V27.44C255.743 27.04 255.943 26.84 256.343 26.84H258.463V13.48H256.303C255.903 13.48 255.703 13.28 255.703 12.88V10.8C255.703 10.4 255.903 10.2 256.303 10.2H261.583C261.956 10.2 262.183 10.4 262.263 10.8L262.703 13.64ZM280.99 0.76V16.72H283.03L289.23 10.64C289.523 10.3467 289.87 10.2 290.27 10.2H293.39C293.79 10.2 293.99 10.4 293.99 10.8V12.88C293.99 13.28 293.79 13.48 293.39 13.48H290.95L286.55 17.76L292.03 26.84H294.39C294.79 26.84 294.99 27.04 294.99 27.44V29.4C294.99 29.8 294.79 30 294.39 30H289.23C288.857 30 288.55 29.8267 288.31 29.48L282.31 19.8H280.99V26.84H283.11C283.51 26.84 283.71 27.04 283.71 27.44V29.4C283.71 29.8 283.51 30 283.11 30H274.39C273.99 30 273.79 29.8 273.79 29.4V27.44C273.79 27.04 273.99 26.84 274.39 26.84H276.51V3.4H274.35C273.95 3.4 273.75 3.2 273.75 2.8V0.76C273.75 0.359999 273.95 0.159998 274.35 0.159998H280.39C280.79 0.159998 280.99 0.359999 280.99 0.76ZM297.646 15.92C297.646 14.16 298.326 12.6933 299.686 11.52C301.046 10.3467 302.766 9.76 304.846 9.76C306.926 9.76 308.726 10 310.246 10.48C310.62 10.5867 310.806 10.8267 310.806 11.2V15.44C310.806 15.84 310.606 16.04 310.206 16.04H307.886C307.46 16.04 307.286 15.84 307.366 15.44L307.566 13.4C306.766 12.9733 305.886 12.76 304.926 12.76C302.793 12.76 301.726 13.5067 301.726 15C301.726 15.7733 302.073 16.3867 302.766 16.84C303.46 17.2933 304.3 17.6667 305.286 17.96C306.273 18.2267 307.26 18.5467 308.246 18.92C309.26 19.2667 310.113 19.88 310.806 20.76C311.5 21.6133 311.846 22.7067 311.846 24.04C311.846 26.0667 311.14 27.6533 309.726 28.8C308.313 29.92 306.326 30.48 303.766 30.48C301.98 30.48 300.1 30.2133 298.126 29.68C297.78 29.5733 297.606 29.32 297.606 28.92V24.68C297.606 24.28 297.806 24.08 298.206 24.08H300.526C300.926 24.08 301.113 24.28 301.086 24.68L300.966 26.76C301.686 27.2933 302.713 27.56 304.046 27.56C306.42 27.56 307.606 26.72 307.606 25.04C307.606 24.1867 307.26 23.52 306.566 23.04C305.9 22.5333 305.073 22.1467 304.086 21.88C303.126 21.6133 302.153 21.32 301.166 21C300.18 20.6533 299.34 20.0667 298.646 19.24C297.98 18.3867 297.646 17.28 297.646 15.92Z" fill="#1C1A19"/>
</svg>
